<svg width="20" height="20" viewBox="0 0 20 20" fill="none" xmlns="http://www.w3.org/2000/svg">
<path d="M4.99998 9.16675C4.83516 9.16675 4.67405 9.21562 4.537 9.30719C4.39996 9.39876 4.29315 9.52891 4.23008 9.68118C4.16701 9.83345 4.1505 10.001 4.18266 10.1627C4.21481 10.3243 4.29418 10.4728 4.41072 10.5893C4.52727 10.7059 4.67575 10.7852 4.8374 10.8174C4.99905 10.8496 5.16661 10.8331 5.31888 10.77C5.47115 10.7069 5.6013 10.6001 5.69287 10.4631C5.78444 10.326 5.83331 10.1649 5.83331 10.0001C5.83331 9.77907 5.74551 9.56711 5.58923 9.41083C5.43295 9.25455 5.22099 9.16675 4.99998 9.16675ZM15 9.16675C14.8352 9.16675 14.674 9.21562 14.537 9.30719C14.4 9.39876 14.2932 9.52891 14.2301 9.68118C14.167 9.83345 14.1505 10.001 14.1827 10.1627C14.2148 10.3243 14.2942 10.4728 14.4107 10.5893C14.5273 10.7059 14.6758 10.7852 14.8374 10.8174C14.9991 10.8496 15.1666 10.8331 15.3189 10.77C15.4712 10.7069 15.6013 10.6001 15.6929 10.4631C15.7844 10.326 15.8333 10.1649 15.8333 10.0001C15.8333 9.77907 15.7455 9.56711 15.5892 9.41083C15.433 9.25455 15.221 9.16675 15 9.16675ZM16.6666 4.16675H3.33331C2.67027 4.16675 2.03439 4.43014 1.56555 4.89898C1.09671 5.36782 0.833313 6.00371 0.833313 6.66675V13.3334C0.833313 13.9965 1.09671 14.6323 1.56555 15.1012C2.03439 15.57 2.67027 15.8334 3.33331 15.8334H16.6666C17.3297 15.8334 17.9656 15.57 18.4344 15.1012C18.9033 14.6323 19.1666 13.9965 19.1666 13.3334V6.66675C19.1666 6.00371 18.9033 5.36782 18.4344 4.89898C17.9656 4.43014 17.3297 4.16675 16.6666 4.16675ZM17.5 13.3334C17.5 13.5544 17.4122 13.7664 17.2559 13.9227C17.0996 14.079 16.8877 14.1667 16.6666 14.1667H3.33331C3.1123 14.1667 2.90034 14.079 2.74406 13.9227C2.58778 13.7664 2.49998 13.5544 2.49998 13.3334V6.66675C2.49998 6.44573 2.58778 6.23377 2.74406 6.07749C2.90034 5.92121 3.1123 5.83341 3.33331 5.83341H16.6666C16.8877 5.83341 17.0996 5.92121 17.2559 6.07749C17.4122 6.23377 17.5 6.44573 17.5 6.66675V13.3334ZM9.99998 7.50008C9.50553 7.50008 9.02218 7.6467 8.61105 7.92141C8.19993 8.19611 7.8795 8.58656 7.69028 9.04337C7.50106 9.50019 7.45155 10.0029 7.54802 10.4878C7.64448 10.9728 7.88258 11.4182 8.23221 11.7678C8.58184 12.1175 9.0273 12.3556 9.51225 12.452C9.99721 12.5485 10.4999 12.499 10.9567 12.3098C11.4135 12.1206 11.8039 11.8001 12.0787 11.389C12.3534 10.9779 12.5 10.4945 12.5 10.0001C12.5 9.33704 12.2366 8.70116 11.7677 8.23231C11.2989 7.76347 10.663 7.50008 9.99998 7.50008ZM9.99998 10.8334C9.83516 10.8334 9.67404 10.7845 9.537 10.693C9.39996 10.6014 9.29315 10.4713 9.23008 10.319C9.16701 10.1667 9.1505 9.99916 9.18266 9.83751C9.21481 9.67586 9.29418 9.52737 9.41072 9.41083C9.52727 9.29428 9.67575 9.21491 9.8374 9.18276C9.99905 9.15061 10.1666 9.16711 10.3189 9.23018C10.4712 9.29325 10.6013 9.40006 10.6929 9.53711C10.7844 9.67415 10.8333 9.83526 10.8333 10.0001C10.8333 10.2211 10.7455 10.4331 10.5892 10.5893C10.433 10.7456 10.221 10.8334 9.99998 10.8334Z" fill="#71839B"/>
</svg>
