<svg width="20" height="20" viewBox="0 0 20 20" fill="none" xmlns="http://www.w3.org/2000/svg">
<path d="M17.075 6.26655C17.0703 6.24458 17.0703 6.22185 17.075 6.19988C17.071 6.18065 17.071 6.16078 17.075 6.14155V6.06655L17.025 5.94155C17.0047 5.90744 16.9794 5.87655 16.95 5.84988L16.875 5.78322H16.8333L13.55 3.70822L10.45 1.79155C10.3783 1.73466 10.2962 1.69221 10.2083 1.66655H10.1417C10.0672 1.65412 9.99115 1.65412 9.91666 1.66655H9.83333C9.73653 1.68796 9.64372 1.72452 9.55833 1.77488L3.33333 5.64988L3.25833 5.70822L3.18333 5.77488L3.1 5.83322L3.05833 5.88322L3.00833 6.00822V6.08322V6.13322C3.00023 6.18848 3.00023 6.24462 3.00833 6.29988V13.5749C3.00805 13.7165 3.04386 13.8559 3.11239 13.9798C3.18092 14.1037 3.2799 14.2082 3.4 14.2832L9.65 18.1499L9.775 18.1999H9.84166C9.98265 18.2446 10.134 18.2446 10.275 18.1999H10.3417L10.4667 18.1499L16.6667 14.3415C16.7868 14.2665 16.8857 14.1621 16.9543 14.0381C17.0228 13.9142 17.0586 13.7748 17.0583 13.6332V6.35822C17.0583 6.35822 17.075 6.29988 17.075 6.26655ZM10 3.47488L11.4833 4.39155L6.825 7.27488L5.33333 6.35822L10 3.47488ZM9.16666 15.9749L4.58333 13.1749V7.84988L9.16666 10.6832V15.9749ZM10 9.21655L8.40833 8.25822L13.0667 5.36655L14.6667 6.35822L10 9.21655ZM15.4167 13.1499L10.8333 15.9999V10.6832L15.4167 7.84988V13.1499Z" fill="#71839B"/>
</svg>
