<svg width="34" height="33" viewBox="0 0 34 33" fill="none" xmlns="http://www.w3.org/2000/svg">
<path d="M29.024 1.5C27.3539 1.5 26 5.52944 26 10.5H29.024C30.4814 10.5 31.2101 10.5 31.6611 9.99682C32.1123 9.49363 32.0338 8.83099 31.8767 7.50571C31.4621 4.00714 30.3415 1.5 29.024 1.5Z" stroke="#0300A8" stroke-width="2.5"/>
<path d="M26 10.5814V26.4687C26 28.7362 26 29.87 25.307 30.3162C24.1747 31.0457 22.4242 29.5161 21.5437 28.961C20.8162 28.5021 20.4526 28.2728 20.0488 28.2596C19.6126 28.2452 19.2423 28.4652 18.4563 28.961L15.59 30.7686C14.8168 31.2561 14.4302 31.5 14 31.5C13.5698 31.5 13.1832 31.2561 12.41 30.7686L9.54369 28.961C8.81622 28.5021 8.45249 28.2728 8.04879 28.2596C7.61258 28.2452 7.2424 28.4652 6.45631 28.961C5.57592 29.5161 3.82531 31.0457 2.69293 30.3162C2 29.87 2 28.7362 2 26.4687V10.5814C2 6.30038 2 4.15988 3.31802 2.82995C4.63604 1.5 6.75736 1.5 11 1.5H29" stroke="#0300A8" stroke-width="2.5" stroke-linecap="round" stroke-linejoin="round"/>
<path d="M8 7.5H20" stroke="#0300A8" stroke-width="2.5" stroke-linecap="round" stroke-linejoin="round"/>
<path d="M11 13.5H8" stroke="#0300A8" stroke-width="2.5" stroke-linecap="round" stroke-linejoin="round"/>
<path d="M17.75 14.8125C16.5074 14.8125 15.5 15.6939 15.5 16.7812C15.5 17.8686 16.5074 18.75 17.75 18.75C18.9926 18.75 20 19.6314 20 20.7188C20 21.8061 18.9926 22.6875 17.75 22.6875M17.75 14.8125C18.7297 14.8125 19.5631 15.3603 19.8719 16.125M17.75 14.8125V13.5M17.75 22.6875C16.7703 22.6875 15.9369 22.1397 15.6281 21.375M17.75 22.6875V24" stroke="#0300A8" stroke-width="2.5" stroke-linecap="round"/>
</svg>
