<svg width="20" height="12" viewBox="0 0 20 12" fill="none" xmlns="http://www.w3.org/2000/svg">
<path d="M5.00001 5.16675C4.83519 5.16675 4.67408 5.21562 4.53703 5.30719C4.39999 5.39876 4.29318 5.52891 4.23011 5.68118C4.16704 5.83345 4.15053 6.00101 4.18269 6.16266C4.21484 6.32431 4.29421 6.47279 4.41075 6.58934C4.5273 6.70588 4.67578 6.78525 4.83743 6.8174C4.99909 6.84956 5.16664 6.83305 5.31891 6.76998C5.47118 6.70691 5.60133 6.6001 5.6929 6.46306C5.78447 6.32602 5.83334 6.1649 5.83334 6.00008C5.83334 5.77907 5.74555 5.56711 5.58927 5.41083C5.43298 5.25455 5.22102 5.16675 5.00001 5.16675ZM15 5.16675C14.8352 5.16675 14.6741 5.21562 14.537 5.30719C14.4 5.39876 14.2932 5.52891 14.2301 5.68118C14.167 5.83345 14.1505 6.00101 14.1827 6.16266C14.2148 6.32431 14.2942 6.47279 14.4108 6.58934C14.5273 6.70588 14.6758 6.78525 14.8374 6.8174C14.9991 6.84956 15.1666 6.83305 15.3189 6.76998C15.4712 6.70691 15.6013 6.6001 15.6929 6.46306C15.7845 6.32602 15.8333 6.1649 15.8333 6.00008C15.8333 5.77907 15.7455 5.56711 15.5893 5.41083C15.433 5.25455 15.221 5.16675 15 5.16675ZM16.6667 0.166748H3.33334C2.6703 0.166748 2.03442 0.43014 1.56558 0.898981C1.09674 1.36782 0.833344 2.00371 0.833344 2.66675V9.33341C0.833344 9.99646 1.09674 10.6323 1.56558 11.1012C2.03442 11.57 2.6703 11.8334 3.33334 11.8334H16.6667C17.3297 11.8334 17.9656 11.57 18.4344 11.1012C18.9033 10.6323 19.1667 9.99646 19.1667 9.33341V2.66675C19.1667 2.00371 18.9033 1.36782 18.4344 0.898981C17.9656 0.43014 17.3297 0.166748 16.6667 0.166748ZM17.5 9.33341C17.5 9.55443 17.4122 9.76639 17.2559 9.92267C17.0997 10.079 16.8877 10.1667 16.6667 10.1667H3.33334C3.11233 10.1667 2.90037 10.079 2.74409 9.92267C2.58781 9.76639 2.50001 9.55443 2.50001 9.33341V2.66675C2.50001 2.44573 2.58781 2.23377 2.74409 2.07749C2.90037 1.92121 3.11233 1.83341 3.33334 1.83341H16.6667C16.8877 1.83341 17.0997 1.92121 17.2559 2.07749C17.4122 2.23377 17.5 2.44573 17.5 2.66675V9.33341ZM10 3.50008C9.50556 3.50008 9.02221 3.6467 8.61108 3.92141C8.19996 4.19611 7.87953 4.58656 7.69031 5.04337C7.50109 5.50019 7.45158 6.00285 7.54805 6.48781C7.64451 6.97276 7.88261 7.41822 8.23224 7.76785C8.58187 8.11748 9.02733 8.35558 9.51228 8.45204C9.99724 8.54851 10.4999 8.499 10.9567 8.30978C11.4135 8.12056 11.804 7.80013 12.0787 7.38901C12.3534 6.97788 12.5 6.49453 12.5 6.00008C12.5 5.33704 12.2366 4.70116 11.7678 4.23231C11.2989 3.76347 10.6631 3.50008 10 3.50008ZM10 6.83341C9.83519 6.83341 9.67408 6.78454 9.53703 6.69297C9.39999 6.6014 9.29318 6.47126 9.23011 6.31898C9.16704 6.16671 9.15053 5.99916 9.18269 5.83751C9.21484 5.67586 9.29421 5.52737 9.41075 5.41083C9.5273 5.29428 9.67578 5.21491 9.83743 5.18276C9.99908 5.15061 10.1666 5.16711 10.3189 5.23018C10.4712 5.29325 10.6013 5.40006 10.6929 5.53711C10.7845 5.67415 10.8333 5.83526 10.8333 6.00008C10.8333 6.2211 10.7455 6.43306 10.5893 6.58934C10.433 6.74562 10.221 6.83341 10 6.83341Z" fill="#71839B"/>
</svg>
