<svg width="34" height="33" viewBox="0 0 34 33" fill="none" xmlns="http://www.w3.org/2000/svg">
<path d="M2 16.5C2 9.42894 2 5.89341 4.19669 3.69669C6.39341 1.5 9.92894 1.5 17 1.5C24.071 1.5 27.6066 1.5 29.8034 3.69669C32 5.89341 32 9.42894 32 16.5C32 23.571 32 27.1066 29.8034 29.3034C27.6066 31.5 24.071 31.5 17 31.5C9.92894 31.5 6.39341 31.5 4.19669 29.3034C2 27.1066 2 23.571 2 16.5Z" stroke="#0300A8" stroke-width="2.5" stroke-linejoin="round"/>
<path d="M2 20.4474H2.85066C3.59641 20.4474 3.96928 20.4474 4.29352 20.2916C4.61775 20.1357 4.85069 19.8446 5.31656 19.2622L7.52632 16.5L9.89474 20.4474L12.2632 14.9211L16.2105 22.8158L21.7368 11.7632L24.8947 17.2895L27.2632 14.9211L29.5452 18.3442C29.9431 18.9411 30.1421 19.2395 30.4327 19.4201C30.4905 19.456 30.5505 19.4882 30.6124 19.5163C30.9239 19.6579 31.2827 19.6579 32 19.6579" stroke="#0300A8" stroke-width="2.5" stroke-linejoin="round"/>
<path d="M21.7368 1.5V6.23684M21.7368 31.5V20.4474" stroke="#0300A8" stroke-width="2.5" stroke-linecap="round" stroke-linejoin="round"/>
<path d="M21.7368 13.342C22.6089 13.342 23.3158 12.6351 23.3158 11.763C23.3158 10.891 22.6089 10.1841 21.7368 10.1841C20.8648 10.1841 20.1579 10.891 20.1579 11.763C20.1579 12.6351 20.8648 13.342 21.7368 13.342Z" stroke="#0300A8" stroke-width="2.5" stroke-linejoin="round"/>
</svg>
